<?xml version="1.0" encoding="utf-8"?>
<!-- Generator: Adobe Illustrator 18.1.1, SVG Export Plug-In . SVG Version: 6.00 Build 0)  -->
<svg version="1.1" id="Layer_1" xmlns="http://www.w3.org/2000/svg" xmlns:xlink="http://www.w3.org/1999/xlink" x="0px" y="0px"
	 width="150.311px" height="150.317px" viewBox="0 0 150.311 150.317" enable-background="new 0 0 150.311 150.317"
	 xml:space="preserve">
<g>
	<circle fill="#C3E5F9" cx="75.201" cy="75.159" r="73.284"/>
</g>
<g>
	<path fill="none" stroke="#4378BD" stroke-width="4" stroke-miterlimit="10" d="M2,74.258C2.36,46.269,18.86,19.764,46.229,7.981
		c37.101-15.974,80.128,1.153,96.102,38.255s-1.153,80.128-38.255,96.102c-27.519,11.848-58.298,5.486-78.879-13.731"/>
	<path fill="none" stroke="#4378BD" stroke-width="4" stroke-miterlimit="10" d="M138.839,64.834
		c3.267,36.088-20.15,67.768-56.485,74.189"/>
</g>
<path fill="#4378BD" d="M75.273,48.173c0.829,0,1.525-0.675,1.525-1.504v-9.27c0-0.839-0.696-1.504-1.525-1.504
	c-0.839,0-1.525,0.665-1.525,1.504v9.27C73.748,47.497,74.434,48.173,75.273,48.173 M90.283,51.672
	c0.194,0.102,0.43,0.153,0.655,0.153c0.573,0,1.105-0.317,1.371-0.849l4.072-8.359c0.092-0.215,0.143-0.44,0.143-0.655
	c0-0.563-0.327-1.115-0.87-1.361c-0.215-0.102-0.45-0.153-0.665-0.153c-0.563,0-1.115,0.317-1.371,0.849l-4.062,8.38
	c-0.102,0.194-0.143,0.419-0.143,0.645C89.423,50.884,89.72,51.426,90.283,51.672 M57.51,50.976
	c0.266,0.532,0.819,0.849,1.381,0.849c0.225,0,0.44-0.051,0.655-0.153c0.553-0.246,0.87-0.788,0.87-1.351
	c0-0.225-0.051-0.45-0.143-0.645l-4.072-8.37c-0.256-0.532-0.808-0.849-1.371-0.849c-0.215,0-0.44,0.051-0.645,0.153
	c-0.563,0.246-0.88,0.798-0.88,1.361c0,0.215,0.051,0.44,0.153,0.655L57.51,50.976L57.51,50.976z M112.015,54.506
	c-0.286-0.46-0.798-0.706-1.299-0.706c-0.286,0-0.563,0.082-0.819,0.225l-7.991,4.891c-0.46,0.297-0.716,0.778-0.716,1.279
	c0,0.276,0.072,0.553,0.225,0.778c0.307,0.471,0.798,0.716,1.299,0.716c0.286,0,0.553-0.061,0.819-0.225l7.991-4.881
	c0.46-0.276,0.716-0.767,0.716-1.289C112.25,55.028,112.178,54.762,112.015,54.506 M47.586,61.689c0.522,0,1.013-0.246,1.299-0.716
	c0.164-0.225,0.235-0.501,0.235-0.778c0-0.501-0.266-0.982-0.726-1.279l-7.991-4.891c-0.246-0.143-0.532-0.225-0.819-0.225
	c-0.491,0-1.003,0.246-1.289,0.706c-0.164,0.256-0.225,0.522-0.225,0.788c0,0.522,0.266,1.003,0.716,1.289l8.001,4.881
	C47.023,61.627,47.309,61.689,47.586,61.689 M99.02,91.954c0.072-2.998-0.604-6.354-1.964-9.761
	c1.791-0.747,3.366-1.555,4.533-2.435c0.01,0.327,0.02,0.634,0.02,0.962C101.609,84.741,100.668,88.557,99.02,91.954 M95.511,78.909
	c-0.696-1.31-1.484-2.599-2.374-3.898c0.164-0.246,0.286-0.481,0.368-0.767c1.33,0.123,2.497,0.276,3.509,0.46
	C96.667,76.064,96.156,77.466,95.511,78.909 M94.467,98.472c-0.286,0.286-0.563,0.583-0.87,0.859
	c-3.632,3.182-10.221,3.376-17.097,0.788c2.619-1.146,5.249-2.619,7.797-4.43c0.593,0.399,1.33,0.645,2.118,0.645
	c2.087,0,3.755-1.658,3.755-3.694c0-0.583-0.133-1.115-0.358-1.606c2.159-2.149,4.001-4.42,5.494-6.732
	C97.373,89.99,97.209,95.238,94.467,98.472 M75.273,106.667c-1.248,0-2.486-0.082-3.683-0.266c1.166-1.146,2.404-2.967,3.663-5.32
	c3.816,1.791,7.592,2.763,10.979,2.824c0.286,0.01,0.563,0.01,0.849,0C83.519,105.675,79.519,106.667,75.273,106.667
	 M69.093,105.838h-0.01c-0.737-0.399-1.187-1.504-1.432-3.11c1.903-0.266,3.878-0.757,5.873-1.432
	C71.692,104.416,70.034,106.319,69.093,105.838 M67.548,96.374c1.432,1.085,2.875,2.067,4.338,2.926
	c-1.525,0.46-3.008,0.808-4.441,1.023C67.415,99.126,67.456,97.807,67.548,96.374 M59.311,86.705
	c-1.504-2.138-2.711-4.328-3.632-6.497c2.814-1.166,6.446-2.353,10.764-3.407c0.338,0.747,0.89,1.381,1.576,1.811
	c-0.02,0.092-0.041,0.184-0.051,0.266c-0.624,2.691-1.146,5.177-1.555,7.5C63.742,86.613,61.368,86.705,59.311,86.705
	 M65.348,93.366c-0.286-0.246-0.563-0.501-0.849-0.767c0.194-0.297,0.307-0.665,0.307-1.054c0-1.105-0.9-1.995-2.026-1.995
	c-0.368,0-0.696,0.102-1.003,0.276c-0.276-0.338-0.553-0.634-0.819-0.952c1.698-0.041,3.417-0.123,5.044-0.246
	C65.747,90.317,65.512,91.913,65.348,93.366 M61.511,102.841c1.197,0.143,2.476,0.194,3.806,0.123
	c0.123,0.726,0.307,1.392,0.522,1.964C64.325,104.365,62.872,103.669,61.511,102.841 M54.656,96.845
	c-1.576-2.149-2.179-5.106-1.852-8.4c2.057,0.327,4.481,0.45,6.998,0.44c0.419,0.512,0.849,1.013,1.31,1.514
	c-0.235,0.338-0.368,0.726-0.368,1.146c0,1.105,0.921,2.005,2.026,2.005c0.409,0,0.778-0.123,1.095-0.327
	c0.45,0.43,0.9,0.829,1.361,1.228c-0.225,2.364-0.297,4.41-0.194,6.129c-3.642,0.235-6.732-0.358-8.656-1.811
	C55.781,98.165,55.208,97.53,54.656,96.845 M49.346,84.792c-0.553-0.675,0.9-1.995,3.929-3.479c-0.778,1.555-1.392,3.11-1.821,4.625
	C50.307,85.61,49.591,85.232,49.346,84.792 M50.696,90c-0.286-0.737-0.532-1.484-0.757-2.251c0.317,0.123,0.675,0.205,1.013,0.317
	C50.829,88.731,50.747,89.365,50.696,90 M48.957,80.73c0-4.103,0.972-7.97,2.691-11.429c-0.051,3.1,0.726,6.559,2.251,10.099
	c-1.954,0.757-3.683,1.576-4.921,2.445C48.957,81.487,48.957,81.098,48.957,80.73 M58.114,86.685
	c-1.975-0.041-3.632-0.174-4.962-0.389c0.338-1.617,0.9-3.305,1.647-5.003C55.72,83.104,56.815,84.925,58.114,86.685 M56.242,62.824
	c0.194-0.205,0.389-0.399,0.583-0.593c3.632-3.315,10.058-3.264,16.852-0.368c-0.01,0.01-0.01,0.01-0.01,0.031
	c-3.131,1.494-6.272,3.448-9.26,5.883c-0.194,0.164-0.389,0.327-0.583,0.481c-0.327-0.246-0.737-0.368-1.166-0.368
	c-1.115,0-2.016,0.9-2.016,1.995c0,0.389,0.102,0.726,0.297,1.023c-2.384,2.364-4.389,4.86-5.986,7.398
	C52.814,72.053,53.223,66.191,56.242,62.824 M75.273,54.782c0.992,0,1.985,0.051,2.947,0.153c-1.105,1.095-2.282,2.752-3.469,4.881
	c-3.909-1.658-7.756-2.466-11.173-2.333C67.108,55.754,71.078,54.782,75.273,54.782 M81.555,55.672c0.01,0.01,0.031,0,0.072,0.01
	c0.686,0.153,1.146,1.34,1.412,3.192c-1.862,0.297-3.816,0.808-5.801,1.514C78.844,57.371,80.389,55.478,81.555,55.672
	 M83.325,64.799c-1.698-1.279-3.438-2.394-5.187-3.336c1.75-0.481,3.458-0.788,5.085-0.941
	C83.325,61.77,83.366,63.223,83.325,64.799 M72.213,88.045c0.583,0.819,1.545,1.351,2.619,1.351c1.412,0,2.589-0.88,3.029-2.128
	c0.532-0.092,1.156-0.194,1.862-0.338c-1.258,3.919-2.885,7.909-4.512,11.193c-0.583,0.235-1.177,0.45-1.76,0.665
	c-1.964-0.982-3.909-2.159-5.801-3.561c0.184-2.138,0.491-4.441,0.88-6.794C69.85,88.312,71.108,88.168,72.213,88.045 M80.215,73.66
	c-0.215-0.604-0.798-1.044-1.484-1.044c-0.819,0-1.494,0.624-1.576,1.422c-1.115,0.133-1.964,0.256-2.466,0.327
	c-0.194-1.238-0.941-2.312-1.964-2.957c1.013-3.018,2.128-5.945,3.264-8.441c2.435,1.248,4.87,2.865,7.213,4.799
	c-0.113,1.811-0.297,3.735-0.532,5.638C81.811,73.486,80.992,73.578,80.215,73.66 M81.381,80.883
	c-0.123,0.553-0.246,1.105-0.389,1.647c-0.143,0.624-0.327,1.258-0.501,1.903c-0.9,0.164-1.831,0.327-2.783,0.481
	c-0.501-1.064-1.596-1.801-2.885-1.801c-1.596,0-2.926,1.166-3.151,2.711c-0.941,0.102-1.862,0.225-2.742,0.307
	c0.43-2.323,0.941-4.635,1.473-6.814c2.353,0,4.246-1.852,4.338-4.134c0.87-0.133,1.709-0.246,2.537-0.358
	c0.246,0.553,0.808,0.931,1.453,0.931c0.778,0,1.422-0.542,1.565-1.279c0.778-0.082,1.525-0.143,2.261-0.194
	c-0.123,0.941-0.266,1.883-0.43,2.824c-1.044,0.072-1.872,0.931-1.872,1.985C80.245,79.891,80.706,80.566,81.381,80.883
	 M66.156,75.962c-3.141,0.686-6.763,1.565-10.007,2.64c1.371-2.445,3.162-4.84,5.341-7.08c0.338,0.235,0.726,0.368,1.166,0.368
	c1.125,0,2.036-0.89,2.036-1.995c0-0.389-0.123-0.767-0.317-1.054c0.143-0.153,0.307-0.266,0.46-0.409
	c2.589-2.108,5.372-3.806,8.155-5.075c-0.962,2.159-1.913,4.635-2.803,7.408c-2.302,0.113-4.144,1.975-4.144,4.277
	C66.044,75.358,66.085,75.675,66.156,75.962 M82.906,93.929c-1.883,1.33-3.847,2.445-5.832,3.376c1.34-3.059,2.65-6.661,3.806-10.6
	c3.305-0.655,7.827-1.678,11.971-2.988c-1.289,1.954-2.834,3.868-4.604,5.679c-0.532-0.307-1.156-0.481-1.821-0.481
	c-2.077,0-3.755,1.658-3.755,3.714C82.67,93.09,82.742,93.53,82.906,93.929 M86.855,74.079c0.409,1.443,1.75,2.527,3.366,2.527
	c0.338,0,0.675-0.051,0.992-0.133c1.023,1.484,1.913,2.988,2.66,4.481c-3.162,1.115-7.285,2.261-12.268,3.274
	c0.174-0.655,0.338-1.299,0.512-1.944c0.092-0.399,0.184-0.798,0.286-1.207c1.054-0.041,1.924-0.921,1.924-1.975
	c0-0.778-0.45-1.443-1.095-1.78c0.205-1.054,0.409-2.108,0.563-3.121C84.839,74.13,85.873,74.1,86.855,74.079 M89.137,58.67
	c-0.726-0.072-1.453-0.123-2.22-0.123c-0.829,0-1.658,0.051-2.527,0.133c-0.143-0.941-0.338-1.78-0.573-2.497
	C85.699,56.829,87.489,57.657,89.137,58.67 M87.172,71.511c-0.256,0.471-0.419,0.992-0.44,1.576
	c-0.962,0.061-1.893,0.123-2.824,0.194c0.235-1.525,0.409-3.018,0.553-4.43c0.481,0.42,0.962,0.859,1.422,1.32
	C86.323,70.621,86.742,71.061,87.172,71.511 M96.647,65.597c1.064,1.903,1.279,4.574,0.706,7.571
	c-1.136-0.133-2.374-0.215-3.683-0.246c-0.143-1.78-1.627-3.172-3.458-3.172c-0.409,0-0.798,0.061-1.156,0.205
	c-0.45-0.491-0.911-0.962-1.392-1.432c-0.972-0.952-1.985-1.842-2.988-2.66c0.092-2.005,0.061-3.837-0.072-5.443
	c4.451-0.164,8.257,0.952,10.559,3.315C95.685,64.349,96.186,64.973,96.647,65.597 M99.389,75.297
	c1.136,0.389,1.791,0.839,1.872,1.279c0,0.031,0.01,0.072,0.01,0.092c0,0.624-1.115,1.535-3.233,2.578
	C98.611,77.926,99.072,76.596,99.389,75.297 M99.962,71.685c0.266,0.696,0.491,1.422,0.696,2.149
	c-0.286-0.102-0.583-0.194-0.9-0.256C99.849,72.954,99.921,72.319,99.962,71.685 M103.604,76.33v-0.01
	c-0.01-0.031-0.02-0.061-0.02-0.092c-0.788-4.86-2.834-9.301-5.812-13.004c-0.123-0.184-0.246-0.338-0.389-0.512
	c-0.164-0.194-0.338-0.389-0.522-0.583c-5.269-5.934-12.994-9.679-21.599-9.679c-7.756,0-14.795,3.049-19.952,8.001
	c-0.143,0.113-0.286,0.246-0.43,0.368c-0.143,0.143-0.276,0.317-0.399,0.45c-4.901,5.085-7.909,11.92-7.909,19.461
	c0,6.712,2.394,12.861,6.354,17.721c0.082,0.082,0.153,0.194,0.225,0.297c0.123,0.143,0.246,0.276,0.368,0.409
	C58.789,105.184,66.576,109,75.252,109c7.684,0,14.662-2.988,19.809-7.848c0.194-0.174,0.389-0.348,0.573-0.532
	c0.174-0.174,0.358-0.368,0.512-0.563c4.829-5.054,7.797-11.848,7.797-19.328c0-1.473-0.123-2.937-0.338-4.359L103.604,76.33"/>
</svg>
