<?xml version="1.0" encoding="UTF-8" standalone="no"?>
<svg width="70px" height="71px" viewBox="0 0 70 71" version="1.1" xmlns="http://www.w3.org/2000/svg" xmlns:xlink="http://www.w3.org/1999/xlink" xmlns:sketch="http://www.bohemiancoding.com/sketch/ns">
    <!-- Generator: Sketch 3.4.2 (15855) - http://www.bohemiancoding.com/sketch -->
    <title>ibm_watson_logo</title>
    <desc>Created with Sketch.</desc>
    <defs></defs>
    <g id="V2" stroke="none" stroke-width="1" fill="none" fill-rule="evenodd" sketch:type="MSPage">
        <g id="splash" sketch:type="MSArtboardGroup" transform="translate(-477.000000, -215.000000)">
            <g id="Button-+-lorem-text-copy-+-ibm_watson_logo-+-lorem-text-copy" sketch:type="MSLayerGroup" transform="translate(362.000000, 215.000000)">
                <g id="ibm_watson_logo" transform="translate(115.000000, 0.000000)" sketch:type="MSShapeGroup">
                    <path d="M42.8799457,18.9407065 C43.2873913,19.6486957 43.5917391,20.5366304 43.8040217,21.5740761 C45.2686957,21.3971739 46.7501087,21.3275543 48.2410326,21.3766304 L48.2459783,21.37625 C46.5758696,20.3646739 44.7771739,19.5429348 42.8799457,18.9407065 L42.8799457,18.9407065 Z M38.4284783,34.9809783 C38.8743478,34.9809783 39.2757065,35.177663 39.5549457,35.4915217 C40.4265217,35.4093478 41.2954348,35.3404891 42.1582609,35.286087 C42.3895652,33.8001087 42.5763587,32.3479891 42.7121739,30.9521739 C40.4257609,29.0720652 37.9727174,27.4510326 35.5002717,26.1704891 C34.5507065,28.3538043 33.6224457,30.8654348 32.7588587,33.5532065 C33.6273913,34.1379348 34.265,35.0456522 34.5050543,36.1074457 C35.3713043,35.9788587 36.2417391,35.8609239 37.1121739,35.755163 C37.3777174,35.2917935 37.8677174,34.9809783 38.4284783,34.9809783 L38.4284783,34.9809783 Z M39.9330978,36.8154348 C39.8105978,37.5557609 39.1836413,38.1195652 38.4284783,38.1195652 C37.7855435,38.1195652 37.2358152,37.7109783 37.0105978,37.1327174 C36.2002717,37.2358152 35.3918478,37.3499457 34.5876087,37.4747283 C34.3795109,39.5484783 32.6789674,41.174837 30.5911413,41.2345652 C30.0604348,43.3950543 29.5890761,45.5764674 29.1957065,47.7145109 C30.0353261,47.6654348 30.8863587,47.6057065 31.7461413,47.5357065 C31.966413,46.1688043 33.0818478,45.1290761 34.4255435,45.1290761 C35.5809239,45.1290761 36.5677717,45.8986957 36.9615217,46.9840761 C37.8897826,46.8627174 38.8195652,46.7284239 39.7466848,46.5804348 C40.0677717,45.3771196 40.3725,44.1597283 40.6574457,42.9396739 C40.04,42.5736957 39.6264674,41.9029891 39.6264674,41.136413 C39.6264674,40.0594022 40.4428804,39.1722283 41.4936413,39.0520109 C41.6511413,38.2500543 41.7976087,37.452663 41.9330435,36.6625 C41.2680435,36.7039674 40.6007609,36.7553261 39.9330978,36.8154348 L39.9330978,36.8154348 Z M10.3200543,43.5209783 C11.1870652,42.7981522 12.7000543,41.997337 14.6817391,41.1854891 C13.3601087,37.6280435 12.8678261,33.9458152 13.5240761,30.4260326 C11.4750543,34.0363587 10.3052174,38.2074457 10.3052174,42.6509239 C10.3052174,42.9419565 10.310163,43.2318478 10.3200543,43.5209783 L10.3200543,43.5209783 Z M17.5954891,40.0997283 C20.1409783,39.2304348 23.1407065,38.3832065 26.3763043,37.6421196 C26.348913,37.447337 26.334837,37.2483696 26.334837,37.0455978 C26.334837,34.734837 28.181087,32.8608152 30.4610326,32.8551087 C31.3090217,30.2632065 32.2167391,27.8367935 33.1434783,25.7124457 C30.3088587,27.1668478 27.5849457,29.0994565 25.1132609,31.3147283 C25.258587,31.5981522 25.3407609,31.9203804 25.3407609,32.2620109 C25.3407609,33.3964674 24.4338043,34.3163587 23.3153261,34.3163587 C22.9542935,34.3163587 22.6153261,34.2204891 22.3220109,34.0527174 C20.5267391,35.9720109 18.9277717,38.0210326 17.5954891,40.0997283 L17.5954891,40.0997283 Z M43.3345652,35.221413 C44.0163043,35.1890761 44.6934783,35.1666304 45.3638043,35.1544565 C45.423913,34.6606522 45.5924457,34.2014674 45.8446739,33.8020109 C45.1872826,33.1400543 44.5059239,32.4997826 43.8063043,31.8834783 C43.6780978,32.9680978 43.5194565,34.083913 43.3345652,35.221413 L43.3345652,35.221413 Z M51.7265761,35.3975543 C53.1250543,35.5440217 54.4588587,35.7566848 55.7063043,36.043913 C56.5405978,32.1665217 55.9604348,28.6376087 53.4286413,26.1632609 C50.5152717,23.9365761 47.3078261,22.9409783 44.0147826,22.8854348 C44.2479891,24.7967391 44.2380978,27.0846739 44.0353261,29.6031522 C45.1461957,30.5428261 46.2197826,31.5391848 47.2420109,32.5834783 C47.6372826,32.4050543 48.0747826,32.3057609 48.5347283,32.3057609 C50.2466848,32.3057609 51.6444022,33.676087 51.7265761,35.3975543 L51.7265761,35.3975543 Z M58.1091304,36.7321196 C58.6676087,36.927663 59.1983152,37.1448913 59.7046739,37.3811413 C59.418587,36.0617935 59.0278804,34.7816304 58.5409239,33.5490217 C58.4941304,34.5841848 58.3472826,35.6490217 58.1091304,36.7321196 L58.1091304,36.7321196 Z M60.022337,39.1608152 C59.2949457,38.8066304 58.5295109,38.4916304 57.7290761,38.2154348 C57.3821196,39.4065761 56.9309239,40.6129348 56.3869022,41.8192935 C57.7344022,41.1672283 58.9780435,40.4558152 60.0900543,39.6808696 C60.0691304,39.5070109 60.0466848,39.3335326 60.022337,39.1608152 L60.022337,39.1608152 Z M55.3266304,37.5192391 C54.0959239,37.2247826 52.8054891,37.0029891 51.4709239,36.8443478 C51.4054891,36.9984239 51.3290217,37.146413 51.2419022,37.2875543 C52.1971739,38.5939674 53.0630435,39.9448913 53.818587,41.3270109 C54.4447826,40.0464674 54.9534239,38.7697283 55.3266304,37.5192391 L55.3266304,37.5192391 Z M45.4859239,36.5350543 C44.6965217,36.5403804 43.8998913,36.5628261 43.0990761,36.5993478 C42.945,37.4640761 42.7764674,38.3383152 42.5953804,39.2182609 C43.3341848,39.5446739 43.8492935,40.2808152 43.8492935,41.136413 C43.8492935,42.2955978 42.903913,43.2352717 41.7382609,43.2352717 L41.6903261,43.2345109 C41.4323913,44.2913587 41.1592391,45.3466848 40.873913,46.3932609 C45.0225543,45.6799457 49.0825543,44.6892935 52.6833696,43.3748913 C51.9088043,41.7032609 50.948587,40.0795652 49.8441848,38.52625 C49.4447283,38.7092391 49.0015217,38.8111957 48.5347283,38.8111957 C47.1042935,38.8111957 45.8933696,37.8540217 45.4859239,36.5350543 L45.4859239,36.5350543 Z M26.8157065,39.0086413 C22.9733152,39.9277717 19.4744565,41.0036413 16.6710326,42.055163 C17.4182065,44.0516848 18.4001087,45.9957065 19.5813587,47.8282609 C21.7209239,47.917663 24.1199457,47.9245109 26.6707609,47.8339674 C27.1010326,45.4482609 27.6332609,42.9986413 28.2408152,40.5756522 C27.6427717,40.1868478 27.1504891,39.6466304 26.8157065,39.0086413 L26.8157065,39.0086413 Z M14.9906522,42.7167391 C12.7997283,43.6236957 11.2022826,44.4819565 10.4319022,45.170163 C10.4703261,45.5521196 10.5178804,45.931413 10.5734239,46.3080435 C11.0843478,46.6382609 11.9696196,46.9270109 13.1592391,47.1644022 C13.6420109,45.6708152 14.2571739,44.1821739 14.9906522,42.7167391 L14.9906522,42.7167391 Z M36.9843478,49.0144565 C36.6069565,50.1336957 35.60375,50.9341304 34.4255435,50.9341304 C33.4348913,50.9341304 32.5682609,50.3688043 32.0927174,49.5238587 C30.9940217,49.6132609 29.9086413,49.685163 28.8441848,49.7407065 C28.4561413,52.1283152 28.1761413,54.4341304 28.0315761,56.5653261 C29.68875,57.7347826 31.598913,58.8958696 33.628913,59.9009783 C34.2821196,59.6578804 34.9322826,59.3881522 35.5767391,59.0936957 C36.8329348,56.0992935 38.0670652,52.5136957 39.15625,48.7146739 C38.4322826,48.8227174 37.7075543,48.9223913 36.9843478,49.0144565 L36.9843478,49.0144565 Z M14.1384783,47.3375 C15.2794022,47.5163043 16.6234783,47.6566848 18.1292391,47.7517935 C17.1918478,46.3833696 16.3636413,44.9616848 15.6674457,43.507663 C15.0336413,44.8015217 14.5185326,46.08625 14.1384783,47.3375 L14.1384783,47.3375 Z M60.2525,41.8173913 C58.8022826,42.8019565 57.1382609,43.682663 55.3171196,44.4659783 C56.6977174,47.8419565 57.3794565,51.3400543 57.0948913,54.7890761 C59.1138587,51.1981522 60.2661957,47.0590217 60.2661957,42.6509239 C60.2661957,42.3716848 60.2616304,42.0939674 60.2525,41.8173913 L60.2525,41.8173913 Z M50.9725543,46.071413 C47.6251087,47.133587 43.9691304,47.9461957 40.2667391,48.542337 C39.2197826,52.1226087 38.0430978,55.5370109 36.8394022,58.4819565 C38.7952174,57.4802717 40.6924457,56.2579348 42.4846739,54.8758152 C42.3507609,54.5056522 42.277337,54.1069565 42.277337,53.6907609 C42.277337,51.7604348 43.8496739,50.1953261 45.78875,50.1953261 C46.3263043,50.1953261 46.836087,50.3159239 47.2914674,50.5308696 C48.6427717,49.107663 49.8803261,47.6076087 50.9725543,46.071413 L50.9725543,46.071413 Z M26.3302717,49.8411413 C24.4486413,49.8947826 22.656413,49.8959239 20.9992391,49.84875 C21.4108696,50.3889674 21.8407609,50.9166304 22.2870109,51.4294565 C22.5540761,51.2799457 22.8648913,51.1943478 23.1966304,51.1943478 C24.1895652,51.1943478 24.9945652,51.9609239 24.9945652,52.9059239 C24.9945652,53.2684783 24.8758696,53.6047826 24.6742391,53.8813587 C25.0109239,54.1902717 25.354837,54.4915761 25.704837,54.7841304 C25.8482609,53.2076087 26.060163,51.5481522 26.3302717,49.8411413 L26.3302717,49.8411413 Z M19.6429891,49.7985326 C17.2652717,49.688587 15.225,49.4740217 13.6743478,49.1757609 C13.1542935,51.7901087 13.3045652,54.194837 14.2982609,56.14875 C14.6197283,56.6433152 14.9586957,57.1253261 15.3132609,57.595163 C18.4632609,60.167663 21.9723913,61.3116304 25.5724457,61.3804891 C25.4469022,59.7252174 25.47125,57.8283696 25.6234239,55.7686957 C25.4107609,55.5990217 25.2053261,55.4320109 25.0071196,55.267663 C24.6761413,54.9929891 24.3493478,54.7118478 24.0267391,54.425 C23.7783152,54.5482609 23.496413,54.6178804 23.1966304,54.6178804 C22.2040761,54.6178804 21.3994565,53.8516848 21.3994565,52.9059239 C21.3994565,52.607663 21.4793478,52.3269022 21.6204891,52.082663 C20.9296196,51.347663 20.2688043,50.5845109 19.6429891,49.7985326 L19.6429891,49.7985326 Z M12.6467935,48.9463587 C11.8980978,48.7527174 11.3232609,48.5324457 10.9504348,48.2901087 C11.2388043,49.5291848 11.62,50.7321196 12.086413,51.8924457 C12.2111957,50.9151087 12.3991304,49.9313043 12.6467935,48.9463587 L12.6467935,48.9463587 Z M35.3302174,61.894837 C34.1234783,64.3927717 32.9334783,66.2938043 31.8629348,67.2996739 C32.9817935,67.4526087 34.1246196,67.5313587 35.2857065,67.5313587 C39.4872283,67.5313587 43.4456522,66.4977174 46.920163,64.6727717 C43.350163,65.0166848 39.211413,63.7582065 35.3302174,61.894837 L35.3302174,61.894837 Z M30.6196739,67.0980435 C31.6928804,66.4284783 32.90875,64.6796196 34.148587,62.2163043 C32.1813587,62.8527717 30.1734239,63.2617391 28.1555978,63.396413 C28.3511413,64.7640761 28.676413,65.9080435 29.1466304,66.7742935 C29.6320652,66.896413 30.1232065,67.0044565 30.6196739,67.0980435 L30.6196739,67.0980435 Z M42.8883152,28.6634783 C43.008913,26.5345652 42.9864674,24.5840761 42.7890217,22.9075 C40.6525,23.018587 38.4908696,23.5063043 36.3608152,24.2922826 L36.3398913,24.3360326 C38.5772283,25.5370652 40.7890761,26.9983152 42.8883152,28.6634783 L42.8883152,28.6634783 Z M42.6147826,21.7422283 C42.3758696,20.446087 42.0053261,19.3641304 41.489837,18.5435326 C41.2410326,18.48 40.991087,18.4206522 40.7396196,18.3647283 C39.5393478,18.958587 38.2219022,20.7059239 36.9021739,23.2202174 C38.759837,22.5575 40.6703804,22.056087 42.6147826,21.7422283 L42.6147826,21.7422283 Z M27.9748913,57.5331522 C27.9094565,58.8665761 27.9022283,60.1204891 27.958913,61.2739674 C29.428913,61.1168478 30.9038587,60.7961413 32.3666304,60.3346739 C30.7961957,59.4372283 29.3105978,58.4773913 27.9748913,57.5331522 L27.9748913,57.5331522 Z M26.6536413,66.0054348 C26.291087,65.3084783 26.0194565,64.441087 25.8315217,63.4276087 C23.8722826,63.3480978 21.9157065,62.993913 19.9907065,62.3232065 C21.9917935,63.868913 24.2344565,65.1182609 26.6536413,66.0054348 L26.6536413,66.0054348 Z M34.2699457,23.3035326 C35.6018478,20.6572283 36.9386957,18.7386957 38.1636957,17.9333152 C37.2194565,17.8256522 36.2588587,17.7701087 35.2857065,17.7701087 C31.0244565,17.7701087 27.0135326,18.8334239 23.5036413,20.7070652 L23.5249457,20.705163 C26.8392935,20.6359239 30.5530978,21.5892935 34.2699457,23.3035326 L34.2699457,23.3035326 Z M16.1456522,26.6623913 C14.5565761,31.0225543 14.7079891,35.8974457 16.1620109,40.5665217 C17.6544565,38.0343478 19.4942391,35.6022283 21.6090761,33.3702174 C21.4066848,33.0502717 21.2895109,32.6702174 21.2895109,32.2620109 C21.2895109,31.1271739 22.1964674,30.207663 23.3153261,30.207663 C23.7577717,30.207663 24.1671196,30.3514674 24.5003804,30.5957065 C27.0378804,28.3827174 29.8614674,26.4558152 32.8786957,24.9428261 C26.9336413,22.46125 21.175,22.1177174 17.6597826,25.039837 L17.6479891,25.0318478 C17.1233696,25.552663 16.622337,26.0970652 16.1456522,26.6623913 L16.1456522,26.6623913 Z M36.7005435,61.2553261 C43.2870109,63.7932065 50.3992391,64.108587 54.0259239,57.7332609 L54.0278261,57.7332609 C55.2079348,53.9486957 55.0188587,50.1017391 53.8646196,46.4130435 C52.5019022,48.5157065 50.8854348,50.5575 49.0738043,52.4539674 C49.2198913,52.838587 49.300163,53.255163 49.300163,53.6907609 C49.300163,55.621087 47.7278261,57.1858152 45.78875,57.1858152 C45.2219022,57.1858152 44.68625,57.0519022 44.2118478,56.8141304 C41.866087,58.6040761 39.3350543,60.123913 36.7005435,61.2553261 L36.7005435,61.2553261 Z M35.3286957,69.8139674 C50.3463587,69.8139674 62.5202717,57.7294565 62.5202717,42.8221196 C62.5202717,27.9147826 50.3463587,15.8302717 35.3286957,15.8302717 C20.3106522,15.8302717 8.13673913,27.9147826 8.13673913,42.8221196 C8.13673913,57.7294565 20.3106522,69.8139674 35.3286957,69.8139674 L35.3286957,69.8139674 Z" id="Fill-1" fill="#002994"></path>
                    <path d="M42.8799457,18.9407065 C43.2873913,19.6486957 43.5917391,20.5366304 43.8040217,21.5740761 C45.2686957,21.3971739 46.7501087,21.3275543 48.2410326,21.3766304 L48.2459783,21.37625 C46.5758696,20.3646739 44.7771739,19.5429348 42.8799457,18.9407065 L42.8799457,18.9407065 Z M38.4284783,34.9809783 C38.8743478,34.9809783 39.2757065,35.177663 39.5549457,35.4915217 C40.4265217,35.4093478 41.2954348,35.3404891 42.1582609,35.286087 C42.3895652,33.8001087 42.5763587,32.3479891 42.7121739,30.9521739 C40.4257609,29.0720652 37.9727174,27.4510326 35.5002717,26.1704891 C34.5507065,28.3538043 33.6224457,30.8654348 32.7588587,33.5532065 C33.6273913,34.1379348 34.265,35.0456522 34.5050543,36.1074457 C35.3713043,35.9788587 36.2417391,35.8609239 37.1121739,35.755163 C37.3777174,35.2917935 37.8677174,34.9809783 38.4284783,34.9809783 L38.4284783,34.9809783 Z M39.9330978,36.8154348 C39.8105978,37.5557609 39.1836413,38.1195652 38.4284783,38.1195652 C37.7855435,38.1195652 37.2358152,37.7109783 37.0105978,37.1327174 C36.2002717,37.2358152 35.3918478,37.3499457 34.5876087,37.4747283 C34.3795109,39.5484783 32.6789674,41.174837 30.5911413,41.2345652 C30.0604348,43.3950543 29.5890761,45.5764674 29.1957065,47.7145109 C30.0353261,47.6654348 30.8863587,47.6057065 31.7461413,47.5357065 C31.966413,46.1688043 33.0818478,45.1290761 34.4255435,45.1290761 C35.5809239,45.1290761 36.5677717,45.8986957 36.9615217,46.9840761 C37.8897826,46.8627174 38.8195652,46.7284239 39.7466848,46.5804348 C40.0677717,45.3771196 40.3725,44.1597283 40.6574457,42.9396739 C40.04,42.5736957 39.6264674,41.9029891 39.6264674,41.136413 C39.6264674,40.0594022 40.4428804,39.1722283 41.4936413,39.0520109 C41.6511413,38.2500543 41.7976087,37.452663 41.9330435,36.6625 C41.2680435,36.7039674 40.6007609,36.7553261 39.9330978,36.8154348 L39.9330978,36.8154348 Z M10.3200543,43.5209783 C11.1870652,42.7981522 12.7000543,41.997337 14.6817391,41.1854891 C13.3601087,37.6280435 12.8678261,33.9458152 13.5240761,30.4260326 C11.4750543,34.0363587 10.3052174,38.2074457 10.3052174,42.6509239 C10.3052174,42.9419565 10.310163,43.2318478 10.3200543,43.5209783 L10.3200543,43.5209783 Z M17.5954891,40.0997283 C20.1409783,39.2304348 23.1407065,38.3832065 26.3763043,37.6421196 C26.348913,37.447337 26.334837,37.2483696 26.334837,37.0455978 C26.334837,34.734837 28.181087,32.8608152 30.4610326,32.8551087 C31.3090217,30.2632065 32.2167391,27.8367935 33.1434783,25.7124457 C30.3088587,27.1668478 27.5849457,29.0994565 25.1132609,31.3147283 C25.258587,31.5981522 25.3407609,31.9203804 25.3407609,32.2620109 C25.3407609,33.3964674 24.4338043,34.3163587 23.3153261,34.3163587 C22.9542935,34.3163587 22.6153261,34.2204891 22.3220109,34.0527174 C20.5267391,35.9720109 18.9277717,38.0210326 17.5954891,40.0997283 L17.5954891,40.0997283 Z M43.3345652,35.221413 C44.0163043,35.1890761 44.6934783,35.1666304 45.3638043,35.1544565 C45.423913,34.6606522 45.5924457,34.2014674 45.8446739,33.8020109 C45.1872826,33.1400543 44.5059239,32.4997826 43.8063043,31.8834783 C43.6780978,32.9680978 43.5194565,34.083913 43.3345652,35.221413 L43.3345652,35.221413 Z M51.7265761,35.3975543 C53.1250543,35.5440217 54.4588587,35.7566848 55.7063043,36.043913 C56.5405978,32.1665217 55.9604348,28.6376087 53.4286413,26.1632609 C50.5152717,23.9365761 47.3078261,22.9409783 44.0147826,22.8854348 C44.2479891,24.7967391 44.2380978,27.0846739 44.0353261,29.6031522 C45.1461957,30.5428261 46.2197826,31.5391848 47.2420109,32.5834783 C47.6372826,32.4050543 48.0747826,32.3057609 48.5347283,32.3057609 C50.2466848,32.3057609 51.6444022,33.676087 51.7265761,35.3975543 L51.7265761,35.3975543 Z M58.1091304,36.7321196 C58.6676087,36.927663 59.1983152,37.1448913 59.7046739,37.3811413 C59.418587,36.0617935 59.0278804,34.7816304 58.5409239,33.5490217 C58.4941304,34.5841848 58.3472826,35.6490217 58.1091304,36.7321196 L58.1091304,36.7321196 Z M60.022337,39.1608152 C59.2949457,38.8066304 58.5295109,38.4916304 57.7290761,38.2154348 C57.3821196,39.4065761 56.9309239,40.6129348 56.3869022,41.8192935 C57.7344022,41.1672283 58.9780435,40.4558152 60.0900543,39.6808696 C60.0691304,39.5070109 60.0466848,39.3335326 60.022337,39.1608152 L60.022337,39.1608152 Z M55.3266304,37.5192391 C54.0959239,37.2247826 52.8054891,37.0029891 51.4709239,36.8443478 C51.4054891,36.9984239 51.3290217,37.146413 51.2419022,37.2875543 C52.1971739,38.5939674 53.0630435,39.9448913 53.818587,41.3270109 C54.4447826,40.0464674 54.9534239,38.7697283 55.3266304,37.5192391 L55.3266304,37.5192391 Z M45.4859239,36.5350543 C44.6965217,36.5403804 43.8998913,36.5628261 43.0990761,36.5993478 C42.945,37.4640761 42.7764674,38.3383152 42.5953804,39.2182609 C43.3341848,39.5446739 43.8492935,40.2808152 43.8492935,41.136413 C43.8492935,42.2955978 42.903913,43.2352717 41.7382609,43.2352717 L41.6903261,43.2345109 C41.4323913,44.2913587 41.1592391,45.3466848 40.873913,46.3932609 C45.0225543,45.6799457 49.0825543,44.6892935 52.6833696,43.3748913 C51.9088043,41.7032609 50.948587,40.0795652 49.8441848,38.52625 C49.4447283,38.7092391 49.0015217,38.8111957 48.5347283,38.8111957 C47.1042935,38.8111957 45.8933696,37.8540217 45.4859239,36.5350543 L45.4859239,36.5350543 Z M26.8157065,39.0086413 C22.9733152,39.9277717 19.4744565,41.0036413 16.6710326,42.055163 C17.4182065,44.0516848 18.4001087,45.9957065 19.5813587,47.8282609 C21.7209239,47.917663 24.1199457,47.9245109 26.6707609,47.8339674 C27.1010326,45.4482609 27.6332609,42.9986413 28.2408152,40.5756522 C27.6427717,40.1868478 27.1504891,39.6466304 26.8157065,39.0086413 L26.8157065,39.0086413 Z M14.9906522,42.7167391 C12.7997283,43.6236957 11.2022826,44.4819565 10.4319022,45.170163 C10.4703261,45.5521196 10.5178804,45.931413 10.5734239,46.3080435 C11.0843478,46.6382609 11.9696196,46.9270109 13.1592391,47.1644022 C13.6420109,45.6708152 14.2571739,44.1821739 14.9906522,42.7167391 L14.9906522,42.7167391 Z M36.9843478,49.0144565 C36.6069565,50.1336957 35.60375,50.9341304 34.4255435,50.9341304 C33.4348913,50.9341304 32.5682609,50.3688043 32.0927174,49.5238587 C30.9940217,49.6132609 29.9086413,49.685163 28.8441848,49.7407065 C28.4561413,52.1283152 28.1761413,54.4341304 28.0315761,56.5653261 C29.68875,57.7347826 31.598913,58.8958696 33.628913,59.9009783 C34.2821196,59.6578804 34.9322826,59.3881522 35.5767391,59.0936957 C36.8329348,56.0992935 38.0670652,52.5136957 39.15625,48.7146739 C38.4322826,48.8227174 37.7075543,48.9223913 36.9843478,49.0144565 L36.9843478,49.0144565 Z M14.1384783,47.3375 C15.2794022,47.5163043 16.6234783,47.6566848 18.1292391,47.7517935 C17.1918478,46.3833696 16.3636413,44.9616848 15.6674457,43.507663 C15.0336413,44.8015217 14.5185326,46.08625 14.1384783,47.3375 L14.1384783,47.3375 Z M60.2525,41.8173913 C58.8022826,42.8019565 57.1382609,43.682663 55.3171196,44.4659783 C56.6977174,47.8419565 57.3794565,51.3400543 57.0948913,54.7890761 C59.1138587,51.1981522 60.2661957,47.0590217 60.2661957,42.6509239 C60.2661957,42.3716848 60.2616304,42.0939674 60.2525,41.8173913 L60.2525,41.8173913 Z M50.9725543,46.071413 C47.6251087,47.133587 43.9691304,47.9461957 40.2667391,48.542337 C39.2197826,52.1226087 38.0430978,55.5370109 36.8394022,58.4819565 C38.7952174,57.4802717 40.6924457,56.2579348 42.4846739,54.8758152 C42.3507609,54.5056522 42.277337,54.1069565 42.277337,53.6907609 C42.277337,51.7604348 43.8496739,50.1953261 45.78875,50.1953261 C46.3263043,50.1953261 46.836087,50.3159239 47.2914674,50.5308696 C48.6427717,49.107663 49.8803261,47.6076087 50.9725543,46.071413 L50.9725543,46.071413 Z M26.3302717,49.8411413 C24.4486413,49.8947826 22.656413,49.8959239 20.9992391,49.84875 C21.4108696,50.3889674 21.8407609,50.9166304 22.2870109,51.4294565 C22.5540761,51.2799457 22.8648913,51.1943478 23.1966304,51.1943478 C24.1895652,51.1943478 24.9945652,51.9609239 24.9945652,52.9059239 C24.9945652,53.2684783 24.8758696,53.6047826 24.6742391,53.8813587 C25.0109239,54.1902717 25.354837,54.4915761 25.704837,54.7841304 C25.8482609,53.2076087 26.060163,51.5481522 26.3302717,49.8411413 L26.3302717,49.8411413 Z M19.6429891,49.7985326 C17.2652717,49.688587 15.225,49.4740217 13.6743478,49.1757609 C13.1542935,51.7901087 13.3045652,54.194837 14.2982609,56.14875 C14.6197283,56.6433152 14.9586957,57.1253261 15.3132609,57.595163 C18.4632609,60.167663 21.9723913,61.3116304 25.5724457,61.3804891 C25.4469022,59.7252174 25.47125,57.8283696 25.6234239,55.7686957 C25.4107609,55.5990217 25.2053261,55.4320109 25.0071196,55.267663 C24.6761413,54.9929891 24.3493478,54.7118478 24.0267391,54.425 C23.7783152,54.5482609 23.496413,54.6178804 23.1966304,54.6178804 C22.2040761,54.6178804 21.3994565,53.8516848 21.3994565,52.9059239 C21.3994565,52.607663 21.4793478,52.3269022 21.6204891,52.082663 C20.9296196,51.347663 20.2688043,50.5845109 19.6429891,49.7985326 L19.6429891,49.7985326 Z M12.6467935,48.9463587 C11.8980978,48.7527174 11.3232609,48.5324457 10.9504348,48.2901087 C11.2388043,49.5291848 11.62,50.7321196 12.086413,51.8924457 C12.2111957,50.9151087 12.3991304,49.9313043 12.6467935,48.9463587 L12.6467935,48.9463587 Z M35.3302174,61.894837 C34.1234783,64.3927717 32.9334783,66.2938043 31.8629348,67.2996739 C32.9817935,67.4526087 34.1246196,67.5313587 35.2857065,67.5313587 C39.4872283,67.5313587 43.4456522,66.4977174 46.920163,64.6727717 C43.350163,65.0166848 39.211413,63.7582065 35.3302174,61.894837 L35.3302174,61.894837 Z M30.6196739,67.0980435 C31.6928804,66.4284783 32.90875,64.6796196 34.148587,62.2163043 C32.1813587,62.8527717 30.1734239,63.2617391 28.1555978,63.396413 C28.3511413,64.7640761 28.676413,65.9080435 29.1466304,66.7742935 C29.6320652,66.896413 30.1232065,67.0044565 30.6196739,67.0980435 L30.6196739,67.0980435 Z M42.8883152,28.6634783 C43.008913,26.5345652 42.9864674,24.5840761 42.7890217,22.9075 C40.6525,23.018587 38.4908696,23.5063043 36.3608152,24.2922826 L36.3398913,24.3360326 C38.5772283,25.5370652 40.7890761,26.9983152 42.8883152,28.6634783 L42.8883152,28.6634783 Z M42.6147826,21.7422283 C42.3758696,20.446087 42.0053261,19.3641304 41.489837,18.5435326 C41.2410326,18.48 40.991087,18.4206522 40.7396196,18.3647283 C39.5393478,18.958587 38.2219022,20.7059239 36.9021739,23.2202174 C38.759837,22.5575 40.6703804,22.056087 42.6147826,21.7422283 L42.6147826,21.7422283 Z M27.9748913,57.5331522 C27.9094565,58.8665761 27.9022283,60.1204891 27.958913,61.2739674 C29.428913,61.1168478 30.9038587,60.7961413 32.3666304,60.3346739 C30.7961957,59.4372283 29.3105978,58.4773913 27.9748913,57.5331522 L27.9748913,57.5331522 Z M26.6536413,66.0054348 C26.291087,65.3084783 26.0194565,64.441087 25.8315217,63.4276087 C23.8722826,63.3480978 21.9157065,62.993913 19.9907065,62.3232065 C21.9917935,63.868913 24.2344565,65.1182609 26.6536413,66.0054348 L26.6536413,66.0054348 Z M34.2699457,23.3035326 C35.6018478,20.6572283 36.9386957,18.7386957 38.1636957,17.9333152 C37.2194565,17.8256522 36.2588587,17.7701087 35.2857065,17.7701087 C31.0244565,17.7701087 27.0135326,18.8334239 23.5036413,20.7070652 L23.5249457,20.705163 C26.8392935,20.6359239 30.5530978,21.5892935 34.2699457,23.3035326 L34.2699457,23.3035326 Z M16.1456522,26.6623913 C14.5565761,31.0225543 14.7079891,35.8974457 16.1620109,40.5665217 C17.6544565,38.0343478 19.4942391,35.6022283 21.6090761,33.3702174 C21.4066848,33.0502717 21.2895109,32.6702174 21.2895109,32.2620109 C21.2895109,31.1271739 22.1964674,30.207663 23.3153261,30.207663 C23.7577717,30.207663 24.1671196,30.3514674 24.5003804,30.5957065 C27.0378804,28.3827174 29.8614674,26.4558152 32.8786957,24.9428261 C26.9336413,22.46125 21.175,22.1177174 17.6597826,25.039837 L17.6479891,25.0318478 C17.1233696,25.552663 16.622337,26.0970652 16.1456522,26.6623913 L16.1456522,26.6623913 Z M36.7005435,61.2553261 C43.2870109,63.7932065 50.3992391,64.108587 54.0259239,57.7332609 L54.0278261,57.7332609 C55.2079348,53.9486957 55.0188587,50.1017391 53.8646196,46.4130435 C52.5019022,48.5157065 50.8854348,50.5575 49.0738043,52.4539674 C49.2198913,52.838587 49.300163,53.255163 49.300163,53.6907609 C49.300163,55.621087 47.7278261,57.1858152 45.78875,57.1858152 C45.2219022,57.1858152 44.68625,57.0519022 44.2118478,56.8141304 C41.866087,58.6040761 39.3350543,60.123913 36.7005435,61.2553261 L36.7005435,61.2553261 Z M35.3286957,69.8139674 C50.3463587,69.8139674 62.5202717,57.7294565 62.5202717,42.8221196 C62.5202717,27.9147826 50.3463587,15.8302717 35.3286957,15.8302717 C20.3106522,15.8302717 8.13673913,27.9147826 8.13673913,42.8221196 C8.13673913,57.7294565 20.3106522,69.8139674 35.3286957,69.8139674 L35.3286957,69.8139674 Z" id="Stroke-2" stroke="#002994" stroke-width="0.5"></path>
                    <path d="M0.464130435,17.7229348 L0.46451087,17.7225543 C0.955271739,16.9369565 1.99956522,16.6961413 2.78516304,17.1869022 L9.63641304,21.4679348 C10.4220109,21.9586957 10.6632065,23.0033696 10.1720652,23.7889674 C9.68130435,24.5745652 8.63701087,24.8157609 7.85103261,24.3246196 L1.00016304,20.043587 C0.214565217,19.5528261 -0.0266304348,18.5085326 0.464130435,17.7229348" id="Fill-3" fill="#002994"></path>
                    <path d="M16.1384239,4.49788043 L16.1384239,4.4975 C16.9780435,4.10603261 17.9850543,4.47277174 18.3769022,5.3123913 L21.7909239,12.6342391 C22.1823913,13.4738587 21.8160326,14.4808696 20.976413,14.872337 L20.9760326,14.8727174 C20.136413,15.2641848 19.1294022,14.8974457 18.7379348,14.0578261 L15.3235326,6.73597826 C14.9320652,5.8963587 15.2988043,4.88934783 16.1384239,4.49788043" id="Fill-4" fill="#002994"></path>
                    <path d="M35.1632065,0.0810326087 L35.163587,0.0810326087 C36.0899457,0.0810326087 36.8477717,0.838858696 36.8477717,1.76559783 L36.8477717,9.84413043 C36.8477717,10.7704891 36.0899457,11.5283152 35.163587,11.5283152 L35.1632065,11.5283152 C34.2368478,11.5283152 33.4790217,10.7704891 33.4790217,9.84413043 L33.4790217,1.76559783 C33.4790217,0.838858696 34.2368478,0.0810326087 35.1632065,0.0810326087" id="Fill-5" fill="#002994"></path>
                    <path d="M54.1514674,4.51195652 L54.1518478,4.51195652 C54.991087,4.90342391 55.3578261,5.91081522 54.9663587,6.75043478 L51.552337,14.0722826 C51.1604891,14.9119022 50.1534783,15.2782609 49.3138587,14.8867935 L49.3134783,14.8867935 C48.4742391,14.4953261 48.1075,13.4883152 48.4989674,12.6483152 L51.9133696,5.32684783 C52.304837,4.48684783 53.3118478,4.12048913 54.1514674,4.51195652" id="Fill-6" fill="#002994"></path>
                    <path d="M69.4259239,17.782663 L69.4263043,17.782663 C69.9170652,18.5682609 69.6758696,19.6125543 68.8902717,20.1036957 L62.0390217,24.3847283 C61.2534239,24.8754891 60.2091304,24.6346739 59.7183696,23.8490761 L59.7179891,23.8486957 C59.2272283,23.0630978 59.4684239,22.0188043 60.2540217,21.527663 L67.1052717,17.2466304 C67.8908696,16.7558696 68.935163,16.9970652 69.4259239,17.782663" id="Fill-7" fill="#002994"></path>
                </g>
            </g>
        </g>
    </g>
</svg>